# xmcd
#
# Track frame offsets:
#	150
#	16555
#	34434
#	47834
#	65489
#	80779
#	99161
#	116689
#	133041
#	148399
#	163501
#	180656
#	195606
#	211559
#	225505
#	240365
#
# Disc length: 3399 seconds
#
# Revision: 0
# Processed by: cddbd v1.5.2PL0 Copyright (c) Steve Scherf et al.
# Submitted via: audiograbber 1.83.01
#
DISCID=d30d4510
DTITLE=Reba Mcentire - Reba Volume 14
DYEAR=2007
DGENRE=Karaoke
TTITLE0=Reba Mcentire - What Do You Say
TTITLE1=Reba Mcentire - One Honest Heart
TTITLE2=Reba Mcentire - Wrong Night
TTITLE3=Reba Mcentire - Forever Love
TTITLE4=Reba Mcentire - Whoever's In New England
TTITLE5=Reba Mcentire - Is There Life Out There
TTITLE6=Reba Mcentire - Rumer Has It
TTITLE7=Reba Mcentire - For My Broken Heart
TTITLE8=Reba Mcentire - One Promise Too Late
TTITLE9=Reba Mcentire - They Asked About You
TTITLE10=Reba Mcentire - You Lie
TTITLE11=Reba Mcentire - Why Haven't I Heard From You
TTITLE12=Reba Mcentire - I know How He Feels
TTITLE13=Reba Mcentire - Sunday Kind Of Love
TTITLE14=Reba Mcentire - Take It Back
TTITLE15=Reba Mcentire - Last One To Know
EXTD=
EXTT0=
EXTT1=
EXTT2=
EXTT3=
EXTT4=
EXTT5=
EXTT6=
EXTT7=
EXTT8=
EXTT9=
EXTT10=
EXTT11=
EXTT12=
EXTT13=
EXTT14=
EXTT15=
PLAYORDER=
